<svg width="48" height="48" viewBox="0 0 48 48" fill="none" xmlns="http://www.w3.org/2000/svg">
<path fill-rule="evenodd" clip-rule="evenodd" d="M24 48C37.2547 48 48 37.2547 48 24C48 10.7453 37.2547 0 24 0C10.7453 0 0 10.7453 0 24C0 37.2547 10.7453 48 24 48ZM33.3821 13.8336C32.7562 13.2653 30.0547 11.568 24.4186 11.543C24.4186 11.543 17.7442 11.1048 14.5042 14.039C12.7008 15.8198 12.0936 18.4675 12.0269 21.6984L12.0192 22.0301C11.9443 25.3349 11.8114 31.1563 17.5248 32.7437L17.4994 37.729C17.4994 38.0107 17.544 38.2032 17.7048 38.243C17.8205 38.2714 17.9938 38.2114 18.1416 38.0645C19.0862 37.115 22.1117 33.4651 22.1117 33.4651C26.171 33.7306 29.401 32.929 29.7485 32.8152C29.8301 32.7893 29.9477 32.7619 30.0941 32.7274C31.415 32.4197 35.0717 31.5672 35.7466 26.1163C36.5208 19.8749 35.4614 15.6139 33.3821 13.8336ZM23.3587 15.1248C23.3596 15.0093 23.4063 14.8989 23.4886 14.8178C23.5708 14.7367 23.6819 14.6916 23.7974 14.6923C25.9982 14.7077 27.8621 15.4411 29.3578 16.8989C30.8678 18.371 31.6118 20.3741 31.631 22.8528C31.6334 22.9112 31.6239 22.9694 31.6033 23.0241C31.5826 23.0787 31.5512 23.1287 31.5108 23.1709C31.4705 23.2132 31.4221 23.2469 31.3685 23.2701C31.3148 23.2933 31.2571 23.3055 31.1987 23.3059C31.1402 23.3063 31.0823 23.295 31.0284 23.2725C30.9744 23.2501 30.9255 23.2171 30.8846 23.1754C30.8436 23.1337 30.8115 23.0843 30.7901 23.0299C30.7686 22.9756 30.7584 22.9174 30.7598 22.859C30.7421 20.5598 30.0586 18.7992 28.7496 17.5229C27.4262 16.2326 25.7832 15.5774 23.7912 15.5635C23.6758 15.5625 23.5655 15.5157 23.4845 15.4335C23.4035 15.3512 23.358 15.2402 23.3587 15.1248ZM24.4982 16.5322C24.3522 16.5215 24.2079 16.5692 24.0971 16.6649C23.9863 16.7606 23.9181 16.8964 23.9074 17.0424C23.8967 17.1884 23.9444 17.3327 24.0401 17.4435C24.1358 17.5543 24.2716 17.6226 24.4176 17.6333C25.8182 17.7355 26.8498 18.2016 27.5842 19.0032C28.3238 19.8115 28.6901 20.8195 28.6632 22.0699C28.66 22.2163 28.7151 22.358 28.8164 22.4638C28.9177 22.5695 29.0568 22.6307 29.2032 22.6339C29.3496 22.6371 29.4913 22.582 29.597 22.4807C29.7028 22.3795 29.764 22.2403 29.7672 22.0939C29.7994 20.5901 29.3496 19.2974 28.3987 18.2578C27.4339 17.2051 26.1149 16.6502 24.4982 16.5322ZM25.0531 18.6701C24.9946 18.6646 24.9357 18.671 24.8797 18.6889C24.8238 18.7068 24.772 18.7358 24.7276 18.7742C24.6832 18.8126 24.6469 18.8596 24.6211 18.9124C24.5953 18.9651 24.5804 19.0226 24.5773 19.0812C24.5742 19.1399 24.5831 19.1985 24.6032 19.2537C24.6234 19.3089 24.6545 19.3594 24.6947 19.4022C24.7349 19.445 24.7833 19.4793 24.837 19.503C24.8908 19.5266 24.9488 19.5392 25.0075 19.5398C25.6483 19.5734 26.0746 19.7597 26.3515 20.0458C26.6299 20.3338 26.8142 20.7826 26.8474 21.455C26.8563 21.5681 26.9089 21.6732 26.9941 21.7481C27.0792 21.823 27.1902 21.8617 27.3035 21.8561C27.4167 21.8505 27.5233 21.8009 27.6007 21.718C27.678 21.635 27.7199 21.5252 27.7176 21.4118C27.6778 20.6069 27.4498 19.9286 26.9774 19.44C26.5037 18.9499 25.8408 18.7109 25.0531 18.6701ZM25.9195 26.1739C25.6344 26.5253 25.1045 26.4811 25.1045 26.4811C21.2328 25.4923 20.197 21.5707 20.197 21.5707C20.197 21.5707 20.1504 21.0408 20.5032 20.7557L21.203 20.1998C21.5496 19.9325 21.7709 19.284 21.4181 18.6504C21.1471 18.175 20.8525 17.7134 20.5354 17.2675C20.2277 16.8466 19.5101 15.9854 19.5072 15.9826C19.1616 15.5746 18.6528 15.4795 18.1162 15.7589C18.1142 15.7591 18.1122 15.7596 18.1104 15.7603L18.1051 15.7618C17.5679 16.0716 17.084 16.4658 16.6718 16.9291C16.3406 17.329 16.151 17.7211 16.103 18.1051C16.093 18.1617 16.0895 18.2191 16.0925 18.2765C16.091 18.4464 16.1165 18.6154 16.1693 18.7766L16.1875 18.7891C16.3546 19.3824 16.7731 20.3712 17.6822 22.02C18.2022 22.9736 18.802 23.8815 19.475 24.7339C19.8125 25.1611 20.1739 25.5691 20.5579 25.9546L20.5718 25.969L20.5992 25.9958L20.64 26.0371L20.6813 26.0779L20.7226 26.1192C21.1084 26.503 21.516 26.8644 21.9432 27.2016C22.7957 27.8749 23.7038 28.4748 24.6576 28.9949C26.3054 29.904 27.2952 30.3226 27.888 30.4896L27.9005 30.5078C28.0618 30.5606 28.2307 30.5866 28.4002 30.5846C28.4578 30.5875 28.5154 30.5842 28.572 30.5741C28.957 30.5285 29.3486 30.3389 29.747 30.0058C29.7482 30.0053 29.7494 30.0046 29.7504 30.0038C29.7509 30.0032 29.7514 30.0026 29.7518 30.0019L29.7576 29.9981C30.2164 29.5873 30.6069 29.1061 30.9144 28.5725L30.9158 28.5677C30.9164 28.5656 30.9167 28.5635 30.9168 28.5614C31.1966 28.0253 31.1016 27.5165 30.6912 27.1699L30.6005 27.096C30.3682 26.904 29.7446 26.3904 29.4067 26.1418C28.9611 25.8248 28.4999 25.5303 28.0248 25.2595C27.3912 24.9062 26.7437 25.1275 26.4754 25.4746L25.92 26.1734L25.9195 26.1739Z" fill="white"/>
</svg>
