<svg width="48" height="48" viewBox="0 0 48 48" fill="none" xmlns="http://www.w3.org/2000/svg">
<path fill-rule="evenodd" clip-rule="evenodd" d="M24 48C37.2548 48 48 37.2548 48 24C48 10.7452 37.2548 0 24 0C10.7452 0 0 10.7452 0 24C0 37.2548 10.7452 48 24 48ZM33.486 13.9165C31.0163 11.4437 27.7315 10.0813 24.2319 10.08C17.0216 10.08 11.1526 15.9481 11.15 23.1611C11.1492 25.4667 11.7515 27.7174 12.8961 29.7009L11.04 36.48L17.9749 34.661C19.8855 35.7035 22.0371 36.2526 24.2263 36.2534H24.2315C31.4414 36.2534 37.3103 30.3845 37.3134 23.172C37.3156 19.6759 35.9563 16.3894 33.486 13.9165ZM30.1961 25.9002C29.8692 25.7365 28.2624 24.946 27.9624 24.8369C27.663 24.7277 27.4448 24.6732 27.2269 25.0006C27.0091 25.328 26.3827 26.0639 26.192 26.2822C26.0012 26.5004 25.8105 26.5275 25.4839 26.3638C25.4305 26.337 25.3576 26.3054 25.2676 26.2664C24.8073 26.0667 23.8994 25.673 22.8552 24.7413C21.8835 23.8743 21.2275 22.804 21.0367 22.4771C20.846 22.1497 21.0162 21.9729 21.1799 21.81C21.278 21.7122 21.3907 21.5749 21.5034 21.4378C21.5595 21.3693 21.6157 21.3009 21.6701 21.2374C21.8086 21.0756 21.8688 20.9528 21.9505 20.7864C21.9651 20.7565 21.9804 20.7252 21.9971 20.6922C22.1062 20.4739 22.0516 20.2831 21.97 20.1194C21.9155 20.0101 21.6057 19.256 21.3247 18.5723C21.185 18.2323 21.0525 17.9097 20.9621 17.6924C20.7277 17.1298 20.4904 17.1312 20.2998 17.1324C20.2745 17.1325 20.25 17.1327 20.2265 17.1315C20.0362 17.1219 19.818 17.1202 19.6001 17.1202C19.3823 17.1202 19.0283 17.2018 18.7284 17.5292C18.7091 17.5503 18.6875 17.5733 18.664 17.5984C18.3234 17.962 17.5843 18.7511 17.5843 20.2561C17.5843 21.8611 18.7498 23.4119 18.918 23.6357L18.9192 23.6373C18.9298 23.6515 18.9488 23.6788 18.976 23.7178C19.3662 24.2775 21.4375 27.2492 24.5031 28.573C25.2831 28.91 25.8916 29.1108 26.3665 29.2614C27.1497 29.5102 27.8621 29.4753 28.4256 29.391C29.0537 29.2972 30.3594 28.6005 30.6317 27.837C30.9041 27.0736 30.9041 26.4188 30.8225 26.2826C30.7567 26.1724 30.6022 26.0976 30.3732 25.987C30.3184 25.9605 30.2592 25.9319 30.1961 25.9002Z" fill="white"/>
</svg>
