<svg width="116" height="116" viewBox="0 0 116 116" fill="none" xmlns="http://www.w3.org/2000/svg">
<g clip-path="url(#clip0_16_3302)">
<g clip-path="url(#clip1_16_3302)">
<path d="M58.0013 113.364C88.5778 113.364 113.365 88.5767 113.365 58.0002C113.365 27.4238 88.5778 2.63673 58.0013 2.63673C27.4249 2.63673 2.63784 27.4238 2.63784 58.0002C2.63784 88.5767 27.4249 113.364 58.0013 113.364Z" fill="white" stroke="white" stroke-width="5.24046"/>
<path d="M58.0009 104.575C83.7239 104.575 104.577 83.7226 104.577 57.9995C104.577 32.2765 83.7239 11.4239 58.0009 11.4239C32.2779 11.4239 11.4252 32.2765 11.4252 57.9995C11.4252 83.7226 32.2779 104.575 58.0009 104.575Z" stroke="#ECECEC" stroke-width="5.24046"/>
<mask id="mask0_16_3302" style="mask-type:luminance" maskUnits="userSpaceOnUse" x="83" y="36" width="25" height="62">
<path d="M84.0998 96.9046C84.8269 97.9886 86.299 98.2823 87.3467 97.504C96.2929 90.8585 102.739 81.3549 105.589 70.533C108.44 59.7111 107.511 48.2651 102.998 38.0751C102.47 36.8816 101.044 36.4121 99.8775 36.9973C98.7108 37.5824 98.2456 39.0005 98.7679 40.1968C102.768 49.3555 103.576 59.6202 101.019 69.3292C98.4615 79.0381 92.7024 87.5732 84.7101 93.5738C83.6662 94.3575 83.3726 95.8207 84.0998 96.9046Z" fill="white"/>
</mask>
<g mask="url(#mask0_16_3302)">
<path d="M84.0998 96.9046C84.8269 97.9886 86.299 98.2823 87.3467 97.504C96.2929 90.8585 102.739 81.3549 105.589 70.533C108.44 59.7111 107.511 48.2651 102.998 38.0751C102.47 36.8816 101.044 36.4121 99.8775 36.9973C98.7108 37.5824 98.2456 39.0005 98.7679 40.1968C102.768 49.3555 103.576 59.6202 101.019 69.3292C98.4615 79.0381 92.7024 87.5732 84.7101 93.5738C83.6662 94.3575 83.3726 95.8207 84.0998 96.9046Z" stroke="#252525" stroke-width="10.4809"/>
</g>
</g>
</g>
<defs>
<clipPath id="clip0_16_3302">
<rect width="115.29" height="115.29" fill="white" transform="scale(1.00615)"/>
</clipPath>
<clipPath id="clip1_16_3302">
<rect width="115.29" height="115.29" fill="white" transform="translate(0.000245643) scale(1.00615)"/>
</clipPath>
</defs>
</svg>
