<svg width="39" height="39" viewBox="0 0 39 39" fill="none" xmlns="http://www.w3.org/2000/svg">
<path d="M19.4997 16.0802C20.4439 16.0802 21.2093 15.3147 21.2093 14.3705C21.2093 13.4263 20.4439 12.6609 19.4997 12.6609C18.5555 12.6609 17.79 13.4263 17.79 14.3705C17.79 15.3147 18.5555 16.0802 19.4997 16.0802Z" fill="black"/>
<path d="M19.4997 21.209C20.4439 21.209 21.2093 20.4436 21.2093 19.4994C21.2093 18.5552 20.4439 17.7898 19.4997 17.7898C18.5555 17.7898 17.79 18.5552 17.79 19.4994C17.79 20.4436 18.5555 21.209 19.4997 21.209Z" fill="black"/>
<path d="M19.4997 26.3379C20.4439 26.3379 21.2093 25.5725 21.2093 24.6283C21.2093 23.6841 20.4439 22.9187 19.4997 22.9187C18.5555 22.9187 17.79 23.6841 17.79 24.6283C17.79 25.5725 18.5555 26.3379 19.4997 26.3379Z" fill="black"/>
</svg>
