<svg width="117" height="117" viewBox="0 0 117 117" fill="none" xmlns="http://www.w3.org/2000/svg">
<g clip-path="url(#clip0_16_3187)">
<g clip-path="url(#clip1_16_3187)">
<path d="M58.4998 114.341C89.3399 114.341 114.341 89.3403 114.341 58.5002C114.341 27.6601 89.3399 2.65931 58.4998 2.65931C27.6598 2.65931 2.65895 27.6601 2.65895 58.5002C2.65895 89.3403 27.6598 114.341 58.4998 114.341Z" fill="white" stroke="white" stroke-width="5.29545"/>
<path d="M58.4998 105.477C84.4446 105.477 105.477 84.445 105.477 58.5001C105.477 32.5553 84.4446 11.5229 58.4998 11.5229C32.5549 11.5229 11.5225 32.5553 11.5225 58.5001C11.5225 84.445 32.5549 105.477 58.4998 105.477Z" stroke="#ECECEC" stroke-width="5.29545"/>
<mask id="mask0_16_3187" style="mask-type:luminance" maskUnits="userSpaceOnUse" x="10" y="8" width="99" height="51">
<path d="M105.751 58.5C107.067 58.5 108.141 57.4321 108.077 56.1171C107.532 44.7582 103.098 33.9029 95.4815 25.394C87.3334 16.2916 76.1147 10.5139 63.9729 9.16651C51.831 7.81911 39.6186 10.9967 29.6732 18.0911C20.3761 24.7231 13.6705 34.3423 10.6478 45.3052C10.2979 46.5743 11.1108 47.8515 12.3953 48.1402C13.6797 48.4289 14.9488 47.6191 15.3052 46.3519C18.0662 36.5335 24.1001 27.9226 32.4417 21.9723C41.432 15.5592 52.4714 12.6869 63.447 13.9048C74.4228 15.1228 84.5639 20.3457 91.9293 28.5737C98.7635 36.2083 102.763 45.9324 103.304 56.1171C103.374 57.4318 104.434 58.5 105.751 58.5Z" fill="white"/>
</mask>
<g mask="url(#mask0_16_3187)">
<path d="M105.751 58.5C107.068 58.5 108.141 57.4321 108.078 56.1171C107.532 44.7582 103.099 33.9029 95.4818 25.394C87.3338 16.2916 76.1151 10.5139 63.9733 9.16651C51.8313 7.81911 39.619 10.9967 29.6736 18.0911C20.3765 24.7231 13.6708 34.3423 10.6481 45.3052C10.2982 46.5743 11.1112 47.8515 12.3956 48.1402C13.6801 48.4289 14.9491 47.6191 15.3055 46.3519C18.0666 36.5335 24.1004 27.9226 32.4421 21.9723C41.4324 15.5592 52.4718 12.6869 63.4474 13.9048C74.4231 15.1228 84.5643 20.3457 91.9297 28.5737C98.7638 36.2083 102.763 45.9324 103.304 56.1171C103.374 57.4318 104.435 58.5 105.751 58.5Z" stroke="#2FADF2" stroke-width="10.5909"/>
</g>
</g>
</g>
<defs>
<clipPath id="clip0_16_3187">
<rect width="116.5" height="116.5" fill="white" transform="scale(1.00429)"/>
</clipPath>
<clipPath id="clip1_16_3187">
<rect width="116.5" height="116.5" fill="white" transform="translate(-0.000245188) scale(1.00429)"/>
</clipPath>
</defs>
</svg>
