<svg width="69" height="69" viewBox="0 0 69 69" fill="none" xmlns="http://www.w3.org/2000/svg">
<g opacity="0.35" clip-path="url(#clip0_16_3754)">
<g clip-path="url(#clip1_16_3754)">
<g clip-path="url(#clip2_16_3754)">
<path d="M34.5 0C15.4464 0 0 15.4462 0 34.5C0 53.5538 15.4464 69 34.5 69C53.5536 69 69 53.5538 69 34.5C69 15.4462 53.5536 0 34.5 0ZM46.4241 36.3288L29.1741 47.11C28.8475 47.3139 28.4724 47.4266 28.0877 47.4366C27.7029 47.4466 27.3224 47.3535 26.9857 47.1669C26.6491 46.9804 26.3686 46.7071 26.1733 46.3755C25.9779 46.0439 25.8749 45.6661 25.875 45.2812V23.7188C25.875 22.9344 26.3003 22.2131 26.9857 21.8331C27.3222 21.6458 27.7027 21.5523 28.0877 21.5623C28.4726 21.5723 28.8478 21.6854 29.1741 21.89L46.4241 32.6712C47.0542 33.0661 47.4375 33.7568 47.4375 34.5C47.4375 35.2432 47.0542 35.934 46.4241 36.3288Z" fill="white"/>
</g>
</g>
</g>
<defs>
<clipPath id="clip0_16_3754">
<rect width="69" height="69" fill="white"/>
</clipPath>
<clipPath id="clip1_16_3754">
<rect width="69" height="69" fill="white"/>
</clipPath>
<clipPath id="clip2_16_3754">
<rect width="69" height="69" fill="white"/>
</clipPath>
</defs>
</svg>
