<svg width="20" height="22" viewBox="0 0 20 22" fill="none" xmlns="http://www.w3.org/2000/svg">
<path d="M15.7696 7.7345C17.6172 7.00403 19.6367 8.422 19.6367 10.3986V14.0079C19.5938 14.2657 19.5938 14.4806 19.5508 14.6954L18.3477 19.8087C18.0469 21.0978 16.9297 22.0001 15.5977 22.0001H7.94924C7.00393 22.0001 6.14455 21.5704 5.62892 20.84L0.90236 14.2228C1.63771e-05 12.9337 0.257829 11.129 1.54689 10.2267C2.32033 9.62512 3.35158 9.49621 4.21096 9.83996V2.87902C4.21096 1.33215 5.45705 0.000117539 7.04689 0.000117539C8.59377 0.000117539 9.88283 1.33215 9.88283 2.87902V6.05871C10.7852 5.92981 11.6875 6.23059 12.3321 6.91809C13.4922 6.35949 14.9102 6.66028 15.7696 7.7345ZM3.82424 12.0314C3.22267 11.172 1.97658 12.1603 2.57814 13.0197L7.30471 19.6368C7.43361 19.8517 7.69143 19.9376 7.94924 19.9376H15.5977C15.9414 19.9376 16.2852 19.7228 16.3711 19.3361L17.5313 14.2228C17.5313 14.1368 17.5313 14.0939 17.5313 14.0079V10.3986C17.5313 9.32434 15.9844 9.32434 15.9844 10.3986C15.9844 10.7853 15.6836 11.0861 15.2969 11.0861H14.9961C14.6094 11.0861 14.3086 10.7853 14.3086 10.3986V9.49621C14.3086 8.422 12.7617 8.422 12.7617 9.49621V10.3986C12.7617 10.7853 12.418 11.0861 12.0742 11.0861H11.7735C11.3867 11.0861 11.086 10.7853 11.086 10.3986V8.89465C11.086 7.82043 9.49611 7.82043 9.49611 8.89465V10.3986C9.49611 10.7853 9.19533 11.0861 8.80861 11.0861H8.50783C8.12111 11.0861 7.82033 10.7853 7.82033 10.3986V2.87902C7.82033 1.80481 6.27346 1.80481 6.27346 2.87902V13.2775C6.27346 13.965 5.41408 14.2228 5.02736 13.6642L3.82424 12.0314ZM7.94924 17.1876V13.0626C7.94924 12.7189 8.20705 12.3751 8.5508 12.3751H8.80861C9.10939 12.3751 9.41018 12.7189 9.41018 13.0626V17.1876C9.41018 17.5743 9.10939 17.8751 8.80861 17.8751H8.5508C8.20705 17.8751 7.94924 17.5743 7.94924 17.1876ZM11.1719 17.1876V13.0626C11.1719 12.7189 11.4297 12.3751 11.7735 12.3751H12.0313C12.375 12.3751 12.6328 12.7189 12.6328 13.0626V17.1876C12.6328 17.5743 12.375 17.8751 12.0313 17.8751H11.7735C11.4297 17.8751 11.1719 17.5743 11.1719 17.1876ZM14.4375 17.1876V13.0626C14.4375 12.7189 14.6953 12.3751 15.0391 12.3751H15.2969C15.5977 12.3751 15.8985 12.7189 15.8985 13.0626V17.1876C15.8985 17.5743 15.5977 17.8751 15.2969 17.8751H15.0391C14.6953 17.8751 14.4375 17.5743 14.4375 17.1876Z" fill="black"/>
</svg>
