<svg width="39" height="39" viewBox="0 0 39 39" fill="none" xmlns="http://www.w3.org/2000/svg">
<g clip-path="url(#clip0_16_2868)">
<path d="M11.8067 16.935V22.0639H15.2259L19.5 26.338V12.661L15.2259 16.935H11.8067ZM23.3467 19.4995C23.3467 17.9865 22.4747 16.6871 21.2096 16.0546V22.9358C22.4747 22.3118 23.3467 21.0125 23.3467 19.4995ZM21.2096 12.0028V13.7637C23.68 14.4988 25.4837 16.7897 25.4837 19.4995C25.4837 22.2092 23.68 24.5001 21.2096 25.2353V26.9962C24.6374 26.2183 27.1933 23.1581 27.1933 19.4995C27.1933 15.8409 24.6374 12.7807 21.2096 12.0028Z" fill="black"/>
</g>
<defs>
<clipPath id="clip0_16_2868">
<rect width="20" height="20" fill="white" transform="translate(9.24225 9.242) scale(1.02578)"/>
</clipPath>
</defs>
</svg>
