<svg width="118" height="118" viewBox="0 0 118 118" fill="none" xmlns="http://www.w3.org/2000/svg">
<g clip-path="url(#clip0_16_3075)">
<g clip-path="url(#clip1_16_3075)">
<path d="M58.2725 114.623C88.9922 114.623 113.895 89.7196 113.895 59C113.895 28.2803 88.9922 3.3771 58.2725 3.3771C27.5529 3.3771 2.64966 28.2803 2.64966 59C2.64966 89.7196 27.5529 114.623 58.2725 114.623Z" fill="white" stroke="white" stroke-width="5.27497"/>
<path d="M58.2719 105.794C84.1154 105.794 105.066 84.8434 105.066 58.9999C105.066 33.1563 84.1154 12.206 58.2719 12.206C32.4283 12.206 11.478 33.1563 11.478 58.9999C11.478 84.8434 32.4283 105.794 58.2719 105.794Z" stroke="#ECECEC" stroke-width="5.27497"/>
<mask id="mask0_16_3075" style="mask-type:luminance" maskUnits="userSpaceOnUse" x="67" y="11" width="41" height="76">
<path d="M96.8685 85.9383C97.9438 86.6888 99.4293 86.4283 100.127 85.3181C104.059 79.0651 106.545 72.0013 107.391 64.6432C108.326 56.4976 107.222 48.2472 104.176 40.6347C101.131 33.0223 96.2399 26.2867 89.944 21.0343C84.2568 16.2897 77.5843 12.89 70.4244 11.0744C69.1534 10.7521 67.8982 11.5881 67.6373 12.8732C67.3762 14.1583 68.2087 15.4055 69.4781 15.7342C75.8666 17.3889 81.8194 20.4407 86.9019 24.6808C92.5931 29.4287 97.0143 35.5173 99.7672 42.3988C102.52 49.28 103.519 56.7379 102.673 64.1011C101.917 70.6768 99.7123 76.9924 96.2281 82.597C95.5357 83.7107 95.7931 85.1877 96.8685 85.9383Z" fill="white"/>
</mask>
<g mask="url(#mask0_16_3075)">
<path d="M96.8689 85.9383C97.9441 86.6888 99.4296 86.4283 100.128 85.3181C104.059 79.0651 106.546 72.0013 107.391 64.6432C108.327 56.4976 107.222 48.2472 104.177 40.6347C101.131 33.0223 96.2403 26.2867 89.9443 21.0343C84.2572 16.2897 77.5846 12.89 70.4248 11.0744C69.1537 10.7521 67.8986 11.5881 67.6377 12.8732C67.3766 14.1583 68.209 15.4055 69.4785 15.7342C75.8669 17.3889 81.8198 20.4407 86.9023 24.6808C92.5935 29.4287 97.0147 35.5173 99.7676 42.3988C102.521 49.28 103.519 56.7379 102.673 64.1011C101.918 70.6768 99.7127 76.9924 96.2285 82.597C95.5361 83.7107 95.7935 85.1877 96.8689 85.9383Z" stroke="#404040" stroke-width="10.5499"/>
</g>
</g>
</g>
<defs>
<clipPath id="clip0_16_3075">
<rect width="117.5" height="117.5" fill="white" transform="scale(1.00426)"/>
</clipPath>
<clipPath id="clip1_16_3075">
<rect width="116.049" height="117.5" fill="white" transform="translate(0.000367769) scale(1.00426)"/>
</clipPath>
</defs>
</svg>
