<svg width="48" height="48" viewBox="0 0 48 48" fill="none" xmlns="http://www.w3.org/2000/svg">
<path fill-rule="evenodd" clip-rule="evenodd" d="M24 48C37.2548 48 48 37.2548 48 24C48 10.7452 37.2548 0 24 0C10.7452 0 0 10.7452 0 24C0 37.2548 10.7452 48 24 48ZM12 18.9081C12 15.0988 15.0992 12 18.9081 12H29.0919C32.9012 12 36 15.0992 36 18.9081V29.1853C36 32.9942 32.9012 36.0934 29.0919 36.0934H18.9081C15.0988 36.0934 12 32.9942 12 29.1853V18.9081ZM17.7544 24.0026C17.7544 20.5847 20.565 17.8043 24.0191 17.8043C27.4731 17.8043 30.2837 20.5847 30.2837 24.0026C30.2837 27.4201 27.4731 30.2005 24.0191 30.2005C20.5646 30.2005 17.7544 27.4201 17.7544 24.0026ZM20.0363 24.0026C20.0363 26.1616 21.8228 27.9186 24.0191 27.9186C26.2153 27.9186 28.0019 26.162 28.0019 24.0026C28.0019 21.8432 26.215 20.0865 24.0191 20.0865C21.8228 20.0865 20.0363 21.8432 20.0363 24.0026ZM30.3959 19.025C31.21 19.025 31.8699 18.3651 31.8699 17.551C31.8699 16.737 31.21 16.077 30.3959 16.077C29.5818 16.077 28.9219 16.737 28.9219 17.551C28.9219 18.3651 29.5818 19.025 30.3959 19.025Z" fill="white"/>
</svg>
