<svg width="1000" height="533" viewBox="0 0 1000 533" fill="none" xmlns="http://www.w3.org/2000/svg">
<path d="M0 407.219H37.8602V498.434H123.734V530.434H0V407.219Z" fill="#313131"/>
<path d="M150.099 407.219H242.685C262.92 407.219 276.186 409.52 282.61 414.464C290.64 420.558 294.656 433.606 294.656 453.612C294.656 473.503 290.697 486.496 282.782 492.589C276.243 497.648 262.792 500.177 242.685 500.177H187.959V530.434H150.099V407.219ZM187.959 468.272H242.685C251.958 468.272 256.969 462.915 256.969 453.612C256.969 444.332 251.922 438.952 242.685 438.952H187.959V468.272Z" fill="#313131"/>
<path d="M330.475 485.781V452.061H407.212V485.781H330.475Z" fill="#313131"/>
<path d="M518.132 405.318C553.239 405.318 574.866 408.248 583.011 414.114C590.125 419.173 593.68 432.624 593.68 454.468H555.649C555.649 447.341 553.755 442.799 549.97 440.845C545.266 438.43 534.654 437.223 518.132 437.223C499.662 437.223 488.743 438.565 485.607 441.535C482.394 444.41 480.789 450.788 480.789 468.783C480.789 486.664 482.394 492.986 485.607 495.861C488.821 498.735 496.964 500.171 518.132 500.171C534.884 500.171 545.324 499.194 549.454 497.241C553.697 495.17 555.821 490.4 555.821 482.926H593.68C593.68 504.885 590.24 518.338 583.355 523.282C575.211 529.146 553.468 532.078 518.132 532.078C480.098 532.078 461.399 528.858 453.943 522.42C446.599 515.982 442.93 500.749 442.93 468.611C442.93 436.59 446.485 421.529 453.599 415.321C461.285 408.651 480.098 405.318 518.132 405.318Z" fill="#313131"/>
<path d="M620.492 407.219H730.631C744.372 407.219 753.747 409.52 759.369 414.464C765.451 419.868 768.49 429.354 768.49 442.919C768.49 453.436 767.229 461.316 764.704 466.375C762.181 471.434 757.763 475.229 751.454 477.757C764.982 483.049 768.49 489.269 768.49 502.765V530.434H730.631V508.283C730.631 501.038 725.691 495.867 718.425 495.867H658.351V530.434H620.492V407.219ZM658.351 438.952V463.96H718.425C726.836 463.96 730.631 459.519 730.631 451.543C730.631 442.816 727.161 438.952 718.425 438.952H658.351Z" fill="#313131"/>
<path d="M796.932 407.219H864.907L900.186 481.581L935.465 407.219H1000V530.434H962.141V433.849L915.674 530.434H884.698L834.793 433.849V530.434H796.932V407.219Z" fill="#313131"/>
<path fill-rule="evenodd" clip-rule="evenodd" d="M350.847 0.00116476C339.106 0.0293533 335.353 16.2254 345.53 21.6166L424.182 61.4645C435.032 66.7897 447.233 69.7786 460.13 69.7763L540.783 69.7622C553.922 69.7599 566.336 66.6537 577.336 61.1361L655.25 21.6989C665.587 16.428 661.927 0.0429258 650.104 0.00128841C612.706 0.00128883 576.725 8.09663 540.783 8.09663L460.13 8.11072C424.049 8.11072 398.129 -0.112361 350.847 0.00116476Z" fill="url(#paint0_linear_4477_351)"/>
<path fill-rule="evenodd" clip-rule="evenodd" d="M678.342 49.2136C684.188 39.0196 672.056 27.6673 662.304 33.7956L588.512 82.0711C578.48 88.8168 569.795 97.9014 563.348 109.086L523.034 179.027C516.467 190.421 512.946 202.75 512.219 215.047L507.373 302.313C506.763 313.912 522.766 318.931 528.713 308.7C547.412 276.272 558.401 241.037 576.372 209.871L616.686 139.919C634.726 108.633 659.731 81.4884 678.342 49.2136Z" fill="url(#paint1_linear_4477_351)"/>
<path fill-rule="evenodd" clip-rule="evenodd" d="M322.526 49.24C316.68 39.046 328.812 27.6936 338.563 33.822L412.356 82.0974C422.387 88.8432 431.073 97.9277 437.52 109.112L477.834 179.053C484.401 190.447 487.922 202.753 488.649 215.05L493.495 302.339C494.104 313.938 478.102 318.957 472.155 308.727C453.456 276.299 442.467 241.04 424.496 209.874L384.182 139.945C366.141 108.659 341.136 81.5148 322.526 49.24Z" fill="url(#paint2_linear_4477_351)"/>
<defs>
<linearGradient id="paint0_linear_4477_351" x1="673.125" y1="14.6713" x2="339.651" y2="15.8875" gradientUnits="userSpaceOnUse">
<stop stop-color="#55DF4F"/>
<stop offset="0.35" stop-color="#23BDC1"/>
<stop offset="0.68" stop-color="#5285FD"/>
<stop offset="1" stop-color="#9F6EFA"/>
</linearGradient>
<linearGradient id="paint1_linear_4477_351" x1="673.463" y1="38.2655" x2="504.403" y2="337.446" gradientUnits="userSpaceOnUse">
<stop stop-color="#54DF50"/>
<stop offset="0.215498" stop-color="#D0E12F"/>
<stop offset="0.327583" stop-color="#F8D81B"/>
<stop offset="0.47476" stop-color="#FFB905"/>
<stop offset="0.701899" stop-color="#FD6E03"/>
<stop offset="1" stop-color="#FF1200"/>
</linearGradient>
<linearGradient id="paint2_linear_4477_351" x1="326.591" y1="40.1294" x2="499.499" y2="337.444" gradientUnits="userSpaceOnUse">
<stop stop-color="#A56DFA"/>
<stop offset="0.261621" stop-color="#D65EFB"/>
<stop offset="0.543462" stop-color="#FE4FE7"/>
<stop offset="0.75" stop-color="#FE417D"/>
<stop offset="1" stop-color="#F90B05"/>
</linearGradient>
</defs>
</svg>
