<svg width="170" height="91" viewBox="0 0 170 91" fill="none" xmlns="http://www.w3.org/2000/svg">
<g clip-path="url(#clip0_16_3344)">
<g clip-path="url(#clip1_16_3344)">
<path d="M0 69.2272L6.43623 69.2272L6.43623 84.7338L21.0348 84.7338L21.0348 90.1738L7.94846e-08 90.1738L0 69.2272Z" fill="#313131"/>
<path d="M25.5168 69.2272L41.2565 69.2272C44.6964 69.2272 46.9516 69.6184 48.0437 70.4589C49.4088 71.4949 50.0915 73.713 50.0915 77.114C50.0915 80.4955 49.4185 82.7043 48.073 83.7401C46.9613 84.6002 44.6747 85.0301 41.2565 85.0301L31.953 85.0301L31.953 90.1738L25.5168 90.1738L25.5168 69.2272ZM31.953 79.6062L41.2565 79.6062C42.8329 79.6062 43.6847 78.6956 43.6847 77.114C43.6847 75.5364 42.8268 74.6218 41.2565 74.6218L31.953 74.6218L31.953 79.6062Z" fill="#313131"/>
<path d="M56.1807 82.5828L56.1807 76.8504L69.226 76.8504L69.226 82.5828L56.1807 82.5828Z" fill="#313131"/>
<path d="M88.0822 68.9041C94.0504 68.9041 97.727 69.4022 99.1116 70.3994C100.321 71.2594 100.925 73.5461 100.925 77.2596L94.4601 77.2596C94.4601 76.048 94.1381 75.2758 93.4946 74.9436C92.695 74.5331 90.8909 74.3279 88.0822 74.3279C84.9423 74.3279 83.0861 74.556 82.5529 75.0609C82.0067 75.5497 81.7339 76.634 81.7339 79.6931C81.7339 82.7329 82.0067 83.8076 82.5529 84.2964C83.0993 84.7849 84.4836 85.0291 88.0822 85.0291C90.93 85.0291 92.7048 84.863 93.4069 84.531C94.1282 84.1789 94.4893 83.368 94.4893 82.0974L100.925 82.0974C100.925 85.8304 100.341 88.1175 99.1701 88.9579C97.7856 89.9548 94.0893 90.4533 88.0822 90.4533C81.6164 90.4533 78.4376 89.9059 77.1701 88.8114C75.9216 87.7169 75.2979 85.1273 75.2979 79.6639C75.2979 74.2203 75.9022 71.6599 77.1116 70.6046C78.4182 69.4707 81.6164 68.9041 88.0822 68.9041Z" fill="#313131"/>
<path d="M105.483 69.2272L124.207 69.2272C126.543 69.2272 128.137 69.6183 129.092 70.4588C130.126 71.3775 130.643 72.9901 130.643 75.2962C130.643 77.0841 130.429 78.4237 129.999 79.2837C129.571 80.1437 128.819 80.7889 127.747 81.2186C130.047 82.1183 130.643 83.1757 130.643 85.47L130.643 90.1737L124.207 90.1737L124.207 86.4081C124.207 85.1764 123.367 84.2973 122.132 84.2973L111.919 84.2973L111.919 90.1737L105.483 90.1737L105.483 69.2272ZM111.919 74.6218L111.919 78.8731L122.132 78.8731C123.562 78.8731 124.207 78.1182 124.207 76.7623C124.207 75.2787 123.617 74.6218 122.132 74.6218L111.919 74.6218Z" fill="#313131"/>
<path d="M135.478 69.2272L147.034 69.2272L153.032 81.8688L159.029 69.2272L170 69.2272L170 90.1738L163.564 90.1738L163.564 73.7543L155.665 90.1738L150.399 90.1738L141.915 73.7543L141.915 90.1738L135.478 90.1738L135.478 69.2272Z" fill="#313131"/>
<path fill-rule="evenodd" clip-rule="evenodd" d="M59.6443 0.000198014C57.6483 0.00499006 57.0103 2.75832 58.7404 3.67482L72.1112 10.449C73.9557 11.3542 76.0299 11.8624 78.2224 11.862L91.9334 11.8596C94.167 11.8592 96.2774 11.3311 98.1474 10.3931L111.393 3.68881C113.15 2.79276 112.528 0.00729756 110.518 0.000219194C104.16 0.000219245 98.0436 1.37643 91.9334 1.37643L78.2224 1.37882C72.0886 1.37882 67.6822 -0.0191013 59.6443 0.000198014Z" fill="url(#paint0_linear_16_3344)"/>
<path fill-rule="evenodd" clip-rule="evenodd" d="M115.319 8.36631C116.312 6.63333 114.25 4.70344 112.592 5.74525L100.047 13.9521C98.3421 15.0989 96.8656 16.6432 95.7696 18.5446L88.9162 30.4346C87.7998 32.3716 87.2013 34.4675 87.0777 36.558L86.2539 51.3932C86.1502 53.365 88.8707 54.2183 89.8817 52.479C93.0605 46.9662 94.9286 40.9763 97.9837 35.6781L104.837 23.7862C107.904 18.4676 112.155 13.853 115.319 8.36631Z" fill="url(#paint1_linear_16_3344)"/>
<path fill-rule="evenodd" clip-rule="evenodd" d="M54.8291 8.37084C53.8353 6.63786 55.8977 4.70795 57.5554 5.74978L70.1002 13.9566C71.8055 15.1034 73.2821 16.6477 74.3781 18.5491L81.2315 30.439C82.3479 32.376 82.9464 34.4681 83.07 36.5585L83.8939 51.3977C83.9974 53.3695 81.277 54.2227 80.2661 52.4836C77.0872 46.9709 75.2191 40.9768 72.164 35.6786L65.3106 23.7907C62.2437 18.4721 57.9928 13.8576 54.8291 8.37084Z" fill="url(#paint2_linear_16_3344)"/>
</g>
</g>
<defs>
<linearGradient id="paint0_linear_16_3344" x1="114.432" y1="2.49412" x2="57.741" y2="2.70087" gradientUnits="userSpaceOnUse">
<stop stop-color="#55DF4F"/>
<stop offset="0.35" stop-color="#23BDC1"/>
<stop offset="0.68" stop-color="#5285FD"/>
<stop offset="1" stop-color="#9F6EFA"/>
</linearGradient>
<linearGradient id="paint1_linear_16_3344" x1="114.489" y1="6.50514" x2="85.749" y2="57.3658" gradientUnits="userSpaceOnUse">
<stop stop-color="#54DF50"/>
<stop offset="0.215498" stop-color="#D0E12F"/>
<stop offset="0.327583" stop-color="#F8D81B"/>
<stop offset="0.47476" stop-color="#FFB905"/>
<stop offset="0.701899" stop-color="#FD6E03"/>
<stop offset="1" stop-color="#FF1200"/>
</linearGradient>
<linearGradient id="paint2_linear_16_3344" x1="55.5202" y1="6.82204" x2="84.9145" y2="57.3655" gradientUnits="userSpaceOnUse">
<stop stop-color="#A56DFA"/>
<stop offset="0.261621" stop-color="#D65EFB"/>
<stop offset="0.543462" stop-color="#FE4FE7"/>
<stop offset="0.75" stop-color="#FE417D"/>
<stop offset="1" stop-color="#F90B05"/>
</linearGradient>
<clipPath id="clip0_16_3344">
<rect width="170" height="90.61" fill="white"/>
</clipPath>
<clipPath id="clip1_16_3344">
<rect width="170" height="90.61" fill="white"/>
</clipPath>
</defs>
</svg>
