<svg width="86" height="81" viewBox="0 0 86 81" fill="none" xmlns="http://www.w3.org/2000/svg">
<path d="M47.6789 0C34.7245 0 23.2591 6.46702 16.3191 16.3358C17.7554 17.2728 19.1554 18.5577 20.5095 20.2096C25.6868 12.468 34.0583 7.03654 43.744 5.86894L47.6784 12.5265L51.6126 5.8688C66.5013 7.66314 78.3358 19.4971 80.1309 34.3857L73.4724 38.3206L80.1311 42.2554C78.931 52.2096 73.2304 60.7793 65.1427 65.9154C65.658 67.0899 65.9481 68.2906 65.9994 69.5286C66.0373 70.4332 65.9439 71.2881 65.7563 72.0997C77.7947 65.6311 86 52.918 86 38.3213C86 17.1903 68.8098 0 47.6789 0ZM57.458 63.1111C48.6239 56.0117 46.1539 59.5014 42.1456 63.5093C39.3471 66.3084 32.2656 60.463 26.151 54.3482C20.0361 48.2324 14.1916 41.152 16.9897 38.3531C20.9982 34.3453 24.4872 31.8736 17.3855 23.0421C10.2863 14.2073 5.55377 20.9902 1.67098 24.8732C-2.81171 29.3542 1.43476 46.0536 17.9392 62.5605C34.4458 79.0653 51.1449 83.3088 55.625 78.8293C59.5074 74.9461 66.2921 70.2142 57.458 63.1111ZM30.5532 44.3182C30.5532 36.4657 39.7464 35.067 39.7464 32.0026C39.7464 30.5157 38.5561 29.8916 37.4553 29.8916C35.4322 29.8916 34.3028 32.1516 34.3028 32.1516L30.4354 29.5639C30.4354 29.5639 32.399 24.9829 37.9318 24.9829C41.412 24.9829 45.1898 26.9762 45.1898 31.4975C45.1898 38.1314 36.6223 39.4109 36.4735 42.1476H45.5175V46.6093H30.7917C30.6427 45.7765 30.5532 45.0334 30.5532 44.3182ZM47.6921 38.3101L55.9035 25.3392H62.2694V37.1498H64.7975V41.4626H62.2694V46.6096H57.1224V41.4626H47.6924L47.6921 38.3101ZM57.1221 37.1496V32.39C57.1221 31.2295 57.3009 30.0095 57.3009 30.0095H57.2414C57.2414 30.0095 56.7958 31.319 56.2001 32.2113L52.9881 37.0903V37.1498L57.1221 37.1496Z" fill="url(#paint0_linear_16_3332)"/>
<defs>
<linearGradient id="paint0_linear_16_3332" x1="43" y1="0" x2="43" y2="80.4989" gradientUnits="userSpaceOnUse">
<stop stop-color="white"/>
<stop offset="1" stop-color="#999999" stop-opacity="0.4"/>
</linearGradient>
</defs>
</svg>
