<svg width="68" height="68" viewBox="0 0 68 68" fill="none" xmlns="http://www.w3.org/2000/svg">
<g clip-path="url(#clip0_16_3615)">
<g clip-path="url(#clip1_16_3615)">
<mask id="mask0_16_3615" style="mask-type:luminance" maskUnits="userSpaceOnUse" x="0" y="0" width="68" height="68">
<path d="M68 0H0V68H68V0Z" fill="white"/>
</mask>
<g mask="url(#mask0_16_3615)">
<path d="M49.9375 24.04C40.0505 24.04 32.0078 32.0827 32.0078 41.9695C32.0078 51.8563 40.0505 59.8988 49.9373 59.8988C59.8241 59.8988 67.9994 51.8563 67.9994 41.9695C67.9994 32.0827 59.8243 24.04 49.9375 24.04ZM51.9819 51.5703C51.9646 51.5767 51.9466 51.5738 51.9293 51.5798V53.9223C51.9293 55.0236 51.0383 55.9146 49.9371 55.9146C48.8361 55.9146 47.9449 55.0236 47.9449 53.9223V51.5662C46.6329 51.1229 45.3756 50.2816 44.301 49.0003C43.5929 48.1579 43.7017 46.9013 44.546 46.195C45.3885 45.4869 46.6492 45.5958 47.3515 46.4402C48.4059 47.6949 49.5986 48.1931 50.6181 47.8272C51.402 47.5414 51.9293 46.7884 51.9293 45.9539C51.9293 44.8546 51.0364 43.9617 49.9371 43.9617C46.6416 43.9617 43.9607 41.2808 43.9607 37.9853C43.9607 35.5787 45.3925 33.417 47.6086 32.4796C47.7181 32.4332 47.8345 32.4357 47.9451 32.3963V30.0167C47.9451 28.9154 48.8361 28.0245 49.9373 28.0245C51.0385 28.0245 51.9295 28.9154 51.9295 30.0167V32.3998C52.9609 32.7483 53.967 33.3022 54.8651 34.1722C55.6549 34.9367 55.6745 36.1975 54.9079 36.9892C54.1434 37.7791 52.8807 37.7966 52.0907 37.0319C51.122 36.0924 50.05 35.7693 49.1629 36.1489C48.4236 36.4619 47.9449 37.1819 47.9449 37.9853C47.9449 39.0846 48.838 39.9775 49.9371 39.9775C53.2328 39.9775 55.9135 42.6584 55.9135 45.9539C55.9139 48.4577 54.334 50.7143 51.9819 51.5703Z" fill="url(#paint0_linear_16_3615)"/>
<path d="M1.99218 43.9619C0.891039 43.9619 0 44.8529 0 45.9541V66.0085C0 67.1097 0.891039 68.0007 1.99218 68.0007H7.96862V43.9619H1.99218Z" fill="url(#paint1_linear_16_3615)"/>
<path d="M47.2483 12.4345L33.303 0.481512C32.5599 -0.160504 31.455 -0.160504 30.7116 0.481512L16.7666 12.4345C16.1324 12.9753 15.9048 13.8547 16.1946 14.6368C16.4825 15.4189 17.2276 15.9384 18.0623 15.9384H24.0387C24.0387 33.1613 24.0387 50.7762 24.0387 68.0002C29.1709 68.0002 32.719 68.0002 37.9839 68.0002C39.0851 68.0002 39.9761 67.1092 39.9761 66.008V61.464C32.8917 57.829 28.0231 50.4646 28.0231 41.9694C28.0231 33.4743 32.8917 26.1097 39.9761 22.4748V15.9385H45.9526C46.7872 15.9385 47.5323 15.4191 47.8202 14.6369C48.1103 13.8547 47.8826 12.9753 47.2483 12.4345Z" fill="url(#paint2_linear_16_3615)"/>
<path d="M14.0781 28.0244C12.977 28.0244 12.0859 28.9154 12.0859 30.0166V43.9617V68.0003C14.9959 68.0003 17.2292 68.0003 20.0545 68.0003V28.0244H14.0781Z" fill="url(#paint3_linear_16_3615)"/>
</g>
</g>
</g>
<defs>
<linearGradient id="paint0_linear_16_3615" x1="50.0036" y1="24.04" x2="50.0036" y2="59.8988" gradientUnits="userSpaceOnUse">
<stop stop-color="white"/>
<stop offset="1" stop-color="#999999" stop-opacity="0.4"/>
</linearGradient>
<linearGradient id="paint1_linear_16_3615" x1="3.98431" y1="43.9619" x2="3.98431" y2="68.0007" gradientUnits="userSpaceOnUse">
<stop stop-color="white"/>
<stop offset="1" stop-color="#999999" stop-opacity="0.4"/>
</linearGradient>
<linearGradient id="paint2_linear_16_3615" x1="32.0075" y1="0" x2="32.0075" y2="68.0002" gradientUnits="userSpaceOnUse">
<stop stop-color="white"/>
<stop offset="1" stop-color="#999999" stop-opacity="0.4"/>
</linearGradient>
<linearGradient id="paint3_linear_16_3615" x1="16.0702" y1="28.0244" x2="16.0702" y2="68.0003" gradientUnits="userSpaceOnUse">
<stop stop-color="white"/>
<stop offset="1" stop-color="#999999" stop-opacity="0.4"/>
</linearGradient>
<clipPath id="clip0_16_3615">
<rect width="68" height="68" fill="white"/>
</clipPath>
<clipPath id="clip1_16_3615">
<rect width="68" height="68" fill="white"/>
</clipPath>
</defs>
</svg>
