<svg width="116" height="47" viewBox="0 0 116 47" fill="none" xmlns="http://www.w3.org/2000/svg">
<path d="M17.0785 1.33413C19.294 1.33413 21.4255 1.70573 23.4727 2.44891C25.534 3.19211 27.371 4.377 28.9835 6.0036C30.6102 7.63021 31.8932 9.78966 32.8327 12.482C33.7862 15.1603 34.27 18.4485 34.284 22.3468C34.284 26.0066 33.8704 29.2738 33.043 32.1484C32.2297 35.009 31.0589 37.4419 29.5304 39.4471C28.002 41.4523 26.158 42.9808 23.9986 44.0325C21.8391 45.0701 19.4273 45.5889 16.763 45.5889C13.8884 45.5889 11.3503 45.0351 9.14881 43.9273C6.94729 42.8055 5.17345 41.2841 3.8273 39.363C2.49517 37.4279 1.68888 35.2544 1.40843 32.8425H10.3898C10.7404 34.4131 11.4765 35.633 12.5983 36.5024C13.7201 37.3578 15.1083 37.7855 16.763 37.7855C19.5675 37.7855 21.6989 36.5655 23.1572 34.1256C24.6156 31.6717 25.3517 28.3133 25.3658 24.0505H25.0713C24.4263 25.3125 23.5569 26.3992 22.4631 27.3107C21.3694 28.2081 20.1144 28.9022 18.6981 29.393C17.2958 29.8838 15.8025 30.1292 14.2179 30.1292C11.6799 30.1292 9.41524 29.5333 7.42405 28.3413C5.43287 27.1494 3.86235 25.5088 2.71252 23.4195C1.56268 21.3301 0.987755 18.9463 0.987755 16.268C0.973733 13.3794 1.6398 10.8063 2.98595 8.54868C4.33211 6.29106 6.21111 4.52424 8.62297 3.2482C11.0489 1.95813 13.8674 1.32011 17.0785 1.33413ZM17.1416 8.48557C15.7253 8.48557 14.4633 8.82211 13.3555 9.49519C12.2618 10.1683 11.3924 11.0727 10.7474 12.2085C10.1164 13.3443 9.80787 14.6134 9.82189 16.0156C9.82189 17.4319 10.1304 18.7079 10.7474 19.8437C11.3784 20.9655 12.2337 21.863 13.3135 22.5361C14.4072 23.1951 15.6552 23.5246 17.0575 23.5246C18.1092 23.5246 19.0837 23.3283 19.9811 22.9357C20.8786 22.5431 21.6568 22.0032 22.3159 21.3161C22.989 20.615 23.5148 19.8087 23.8934 18.8972C24.272 17.9858 24.4613 17.0182 24.4613 15.9946C24.4473 14.6344 24.1248 13.3864 23.4938 12.2506C22.8628 11.1148 21.9934 10.2033 20.8856 9.51622C19.7778 8.82912 18.5298 8.48557 17.1416 8.48557ZM53.3658 45.5889C50.393 45.5889 47.7428 45.0421 45.415 43.9483C43.1013 42.8546 41.2644 41.3472 39.9042 39.4261C38.544 37.505 37.8359 35.3035 37.7798 32.8215H46.614C46.7121 34.4902 47.4132 35.8433 48.7173 36.881C50.0214 37.9187 51.5709 38.4375 53.3658 38.4375C54.796 38.4375 56.0581 38.122 57.1518 37.491C58.2596 36.846 59.122 35.9555 59.739 34.8197C60.37 33.6699 60.6855 32.3518 60.6855 30.8654C60.6855 29.351 60.363 28.0188 59.7179 26.869C59.0869 25.7191 58.2105 24.8217 57.0887 24.1767C55.9669 23.5316 54.6839 23.2021 53.2396 23.1881C51.9775 23.1881 50.7506 23.4475 49.5587 23.9663C48.3808 24.4852 47.4623 25.1933 46.8033 26.0907L38.7053 24.6394L40.7456 1.92307H67.0797V9.36899H48.2546L47.1398 20.1593H47.3922C48.1494 19.0935 49.2922 18.2101 50.8207 17.509C52.3491 16.8079 54.0599 16.4573 55.9529 16.4573C58.547 16.4573 60.8608 17.0673 62.894 18.2873C64.9273 19.5072 66.5328 21.1829 67.7107 23.3143C68.8886 25.4317 69.4705 27.8716 69.4565 30.634C69.4705 33.5367 68.7975 36.1168 67.4373 38.3744C66.0911 40.618 64.2051 42.3848 61.7792 43.6749C59.3674 44.9509 56.5629 45.5889 53.3658 45.5889ZM96.4259 36.9231V34.6514C96.4259 32.9267 96.7904 31.3421 97.5196 29.8978C98.2628 28.4395 99.3355 27.2756 100.738 26.4062C102.154 25.5228 103.879 25.0811 105.912 25.0811C107.973 25.0811 109.705 25.5158 111.107 26.3852C112.524 27.2546 113.589 28.4185 114.304 29.8768C115.034 31.3211 115.398 32.9127 115.398 34.6514V36.9231C115.398 38.6478 115.034 40.2394 114.304 41.6977C113.575 43.142 112.503 44.2989 111.086 45.1683C109.67 46.0517 107.945 46.4934 105.912 46.4934C103.851 46.4934 102.119 46.0517 100.717 45.1683C99.3145 44.2989 98.2488 43.142 97.5196 41.6977C96.7904 40.2394 96.4259 38.6478 96.4259 36.9231ZM102.547 34.6514V36.9231C102.547 37.9187 102.785 38.8582 103.262 39.7416C103.753 40.625 104.636 41.0667 105.912 41.0667C107.188 41.0667 108.057 40.632 108.52 39.7626C108.997 38.8932 109.235 37.9467 109.235 36.9231V34.6514C109.235 33.6278 109.011 32.6743 108.562 31.7909C108.114 30.9075 107.23 30.4657 105.912 30.4657C104.65 30.4657 103.774 30.9075 103.283 31.7909C102.792 32.6743 102.547 33.6278 102.547 34.6514ZM74.3195 12.2716V10C74.3195 8.26122 74.6911 6.66967 75.4343 5.22536C76.1775 3.76702 77.2502 2.60316 78.6524 1.73377C80.0687 0.864382 81.7794 0.429686 83.7846 0.429686C85.86 0.429686 87.5987 0.864382 89.001 1.73377C90.4032 2.60316 91.4689 3.76702 92.1981 5.22536C92.9273 6.66967 93.2918 8.26122 93.2918 10V12.2716C93.2918 14.0104 92.9203 15.602 92.1771 17.0463C91.4479 18.4906 90.3752 19.6474 88.9589 20.5168C87.5567 21.3722 85.8319 21.7999 83.7846 21.7999C81.7374 21.7999 80.0056 21.3652 78.5893 20.4958C77.1871 19.6124 76.1214 18.4555 75.3922 17.0252C74.6771 15.5809 74.3195 13.9964 74.3195 12.2716ZM80.4823 10V12.2716C80.4823 13.2953 80.7207 14.2418 81.1975 15.1112C81.6883 15.9806 82.5507 16.4153 83.7846 16.4153C85.0747 16.4153 85.9511 15.9806 86.4138 15.1112C86.8906 14.2418 87.129 13.2953 87.129 12.2716V10C87.129 8.97636 86.9046 8.02284 86.4559 7.13942C86.0072 6.25601 85.1168 5.8143 83.7846 5.8143C82.5366 5.8143 81.6743 6.26302 81.1975 7.16046C80.7207 8.05789 80.4823 9.0044 80.4823 10ZM77.0959 45L106.711 1.92307H112.222L82.6067 45H77.0959Z" fill="url(#paint0_linear_16_3641)"/>
<defs>
<linearGradient id="paint0_linear_16_3641" x1="59.501" y1="-15" x2="59.501" y2="62" gradientUnits="userSpaceOnUse">
<stop stop-color="white"/>
<stop offset="1" stop-color="#999999" stop-opacity="0.4"/>
</linearGradient>
</defs>
</svg>
