<svg width="82" height="82" viewBox="0 0 82 82" fill="none" xmlns="http://www.w3.org/2000/svg">
<g clip-path="url(#clip0_16_3685)">
<g clip-path="url(#clip1_16_3685)">
<mask id="mask0_16_3685" style="mask-type:luminance" maskUnits="userSpaceOnUse" x="0" y="0" width="82" height="82">
<path d="M82 0H0V82H82V0Z" fill="white"/>
</mask>
<g mask="url(#mask0_16_3685)">
<path d="M62.9913 45.8161C62.9913 44.4851 61.9142 43.4082 60.5833 43.4082C59.2526 43.4082 58.1754 44.4851 58.1754 45.8161C58.1754 55.1094 50.2918 62.6717 40.9987 62.6717C31.7054 62.6717 23.8218 55.1094 23.8218 45.8161C23.8218 44.4851 22.7449 43.4082 21.414 43.4082C20.083 43.4082 19.006 44.4851 19.006 45.8161C19.006 56.942 27.7845 66.0286 38.5907 67.2443V72.3037H31.0458C29.7149 72.3037 28.6377 73.3807 28.6377 74.7116C28.6377 76.0425 29.7149 77.1197 31.0458 77.1197H50.9516C52.2826 77.1197 53.3595 76.0425 53.3595 74.7116C53.3595 73.3807 52.2826 72.3037 50.9516 72.3037H43.4066V67.2443C54.2127 66.0286 62.9913 56.9422 62.9913 45.8161Z" fill="url(#paint0_linear_16_3685)"/>
<path d="M41.0013 4.88086C34.3628 4.88086 28.6405 10.2823 28.6405 16.9206V45.8159C28.6405 52.4545 34.3631 57.8558 41.0013 57.8558C47.6399 57.8558 53.3622 52.4543 53.3622 45.8159V16.9208C53.362 10.2823 47.6397 4.88086 41.0013 4.88086Z" fill="url(#paint1_linear_16_3685)"/>
<path d="M74.2407 8.53114C73.3001 7.59053 71.7761 7.59053 70.8356 8.53114C69.895 9.47174 69.895 10.9956 70.8356 11.9362C74.9295 16.0277 77.1845 21.4693 77.1845 27.2587C77.1845 33.0481 74.9295 38.4918 70.8356 42.5836C69.895 43.5241 69.895 45.048 70.8356 45.9887C71.7761 46.9292 73.2998 46.9292 74.2407 45.9887C79.2446 40.9867 82.0007 34.3365 82.0007 27.2585C82.0007 20.1828 79.2446 13.5327 74.2407 8.53114Z" fill="url(#paint2_linear_16_3685)"/>
<path d="M67.4247 15.3451C66.4843 14.4045 64.9603 14.4045 64.0198 15.3451C63.0794 16.2857 63.0794 17.8118 64.0198 18.7502C66.2984 21.0265 67.5517 24.0481 67.5517 27.2581C67.5517 30.4679 66.2984 33.4895 64.0198 35.7682C63.0792 36.7089 63.0792 38.2326 64.0198 39.1733C64.9605 40.114 66.4843 40.114 67.4247 39.1733C70.6133 35.9871 72.3677 31.7542 72.3677 27.2581C72.3677 22.7594 70.6112 18.529 67.4247 15.3451Z" fill="url(#paint3_linear_16_3685)"/>
<path d="M60.6183 22.1528C59.6776 21.2121 58.1537 21.2121 57.2132 22.1528C56.2725 23.0933 56.2725 24.6172 57.2132 25.5577C57.6695 26.0141 57.9209 26.6182 57.9209 27.258C57.9209 27.8999 57.6693 28.5044 57.2132 28.9605C56.2725 29.9011 56.2725 31.4249 57.2132 32.3656C58.1537 33.306 59.6776 33.306 60.6183 32.3656C61.9846 30.9993 62.7369 29.1863 62.7369 27.2582C62.7369 25.3319 61.9843 23.519 60.6183 22.1528Z" fill="url(#paint4_linear_16_3685)"/>
<path d="M4.8159 27.2587C4.8159 21.4693 7.07105 16.0279 11.165 11.9362C12.1056 10.9956 12.1056 9.47174 11.165 8.53114C10.2244 7.59053 8.70049 7.59053 7.75989 8.53114C2.75598 13.5328 0 20.183 0 27.2587C0 34.3367 2.75598 40.9867 7.76006 45.9887C8.70064 46.9292 10.2245 46.9292 11.1651 45.9887C12.1057 45.048 12.1057 43.5241 11.1651 42.5836C7.07105 38.4916 4.8159 33.0481 4.8159 27.2587Z" fill="url(#paint5_linear_16_3685)"/>
<path d="M14.4472 27.2581C14.4472 24.0481 15.7006 21.0265 17.9791 18.7502C18.9197 17.8118 18.9197 16.2857 17.9791 15.3451C17.0385 14.4045 15.5146 14.4045 14.574 15.3451C11.3877 18.529 9.6311 22.7594 9.6311 27.2579C9.6311 31.754 11.3853 35.9867 14.574 39.1729C15.5146 40.1136 17.0385 40.1136 17.9791 39.1729C18.9197 38.2324 18.9197 36.7085 17.9791 35.768C15.7006 33.4895 14.4472 30.4679 14.4472 27.2581Z" fill="url(#paint6_linear_16_3685)"/>
<path d="M24.0782 27.258C24.0782 26.6184 24.3299 26.0141 24.7859 25.5577C25.7268 24.6172 25.7268 23.0933 24.7859 22.1528C23.8454 21.2121 22.3215 21.2121 21.3808 22.1528C20.0148 23.519 19.2622 25.3319 19.2622 27.2578C19.2622 29.1861 20.0148 30.9991 21.3808 32.3651C22.3215 33.3058 23.8454 33.3058 24.7859 32.3651C25.7266 31.4247 25.7266 29.9007 24.7859 28.96C24.3299 28.5042 24.0782 27.8999 24.0782 27.258Z" fill="url(#paint7_linear_16_3685)"/>
</g>
</g>
</g>
<defs>
<linearGradient id="paint0_linear_16_3685" x1="40.9987" y1="43.4082" x2="40.9987" y2="77.1197" gradientUnits="userSpaceOnUse">
<stop stop-color="white"/>
<stop offset="1" stop-color="#999999" stop-opacity="0.4"/>
</linearGradient>
<linearGradient id="paint1_linear_16_3685" x1="41.0014" y1="4.88086" x2="41.0014" y2="57.8558" gradientUnits="userSpaceOnUse">
<stop stop-color="white"/>
<stop offset="1" stop-color="#999999" stop-opacity="0.4"/>
</linearGradient>
<linearGradient id="paint2_linear_16_3685" x1="76.0654" y1="7.82568" x2="76.0654" y2="46.6941" gradientUnits="userSpaceOnUse">
<stop stop-color="white"/>
<stop offset="1" stop-color="#999999" stop-opacity="0.4"/>
</linearGradient>
<linearGradient id="paint3_linear_16_3685" x1="67.841" y1="14.6396" x2="67.841" y2="39.8788" gradientUnits="userSpaceOnUse">
<stop stop-color="white"/>
<stop offset="1" stop-color="#999999" stop-opacity="0.4"/>
</linearGradient>
<linearGradient id="paint4_linear_16_3685" x1="59.6223" y1="21.4473" x2="59.6223" y2="33.0709" gradientUnits="userSpaceOnUse">
<stop stop-color="white"/>
<stop offset="1" stop-color="#999999" stop-opacity="0.4"/>
</linearGradient>
<linearGradient id="paint5_linear_16_3685" x1="5.93529" y1="7.82568" x2="5.93529" y2="46.6941" gradientUnits="userSpaceOnUse">
<stop stop-color="white"/>
<stop offset="1" stop-color="#999999" stop-opacity="0.4"/>
</linearGradient>
<linearGradient id="paint6_linear_16_3685" x1="14.1578" y1="14.6396" x2="14.1578" y2="39.8784" gradientUnits="userSpaceOnUse">
<stop stop-color="white"/>
<stop offset="1" stop-color="#999999" stop-opacity="0.4"/>
</linearGradient>
<linearGradient id="paint7_linear_16_3685" x1="22.3769" y1="21.4473" x2="22.3769" y2="33.0707" gradientUnits="userSpaceOnUse">
<stop stop-color="white"/>
<stop offset="1" stop-color="#999999" stop-opacity="0.4"/>
</linearGradient>
<clipPath id="clip0_16_3685">
<rect width="82" height="82" fill="white"/>
</clipPath>
<clipPath id="clip1_16_3685">
<rect width="82" height="82" fill="white"/>
</clipPath>
</defs>
</svg>
