<svg width="78" height="75" viewBox="0 0 78 75" fill="none" xmlns="http://www.w3.org/2000/svg">
<mask id="mask0_16_3715" style="mask-type:luminance" maskUnits="userSpaceOnUse" x="0" y="0" width="79" height="75">
<path d="M78.001 0H0.000976562V75H78.001V0Z" fill="white"/>
</mask>
<g mask="url(#mask0_16_3715)">
<path d="M11.5791 6.7182V57.4218H51.9501C53.2121 57.4218 54.2353 58.4056 54.2353 59.6189C54.2353 60.8324 53.2121 61.8162 51.9501 61.8162C48.17 61.8162 45.0948 64.7733 45.0948 68.408C45.0948 72.0033 48.0407 74.8145 51.5857 74.9907H52.3138C55.958 74.8107 58.8056 71.8724 58.8056 68.2814V6.7182C58.8056 4.27719 59.6251 1.93696 61.1307 0.00878906H18.0712C14.4269 0.188818 11.5791 3.12714 11.5791 6.7182ZM39.3658 17.0808C38.4733 16.2228 38.4733 14.8316 39.3658 13.9734C40.2579 13.1155 41.7049 13.1155 42.5975 13.9734L47.1676 18.368C48.0601 19.2259 48.0601 20.6172 47.1676 21.4754L42.5975 25.87C41.7047 26.728 40.2581 26.7278 39.3658 25.87C38.4733 25.012 38.4733 23.6206 39.3658 22.7624L42.32 19.9216L39.3658 17.0808ZM23.5296 18.368L28.0999 13.9734C28.9922 13.1155 30.439 13.1155 31.3316 13.9734C32.2239 14.8314 32.2239 16.2227 31.3316 17.0808L28.3772 19.9217L31.3316 22.7626C32.2239 23.6206 32.2239 25.012 31.3316 25.87C30.439 26.7282 28.9922 26.728 28.0999 25.87L23.5296 21.4754C22.637 20.6172 22.637 19.2259 23.5296 18.368ZM25.1453 30.9078H45.5519C46.8137 30.9078 47.8368 31.8916 47.8368 33.1051C47.8368 34.3186 46.8137 35.3024 45.5519 35.3024H25.1453C23.8832 35.3024 22.8601 34.3186 22.8601 33.1051C22.8601 31.8916 23.8832 30.9078 25.1453 30.9078ZM25.1377 39.697H45.5519C46.8137 39.697 47.8368 40.6807 47.8368 41.8942C47.8368 43.1077 46.8137 44.0915 45.5519 44.0915H25.1377C23.8757 44.0915 22.8525 43.1077 22.8525 41.8942C22.8525 40.6807 23.8757 39.697 25.1377 39.697Z" fill="url(#paint0_linear_16_3715)"/>
<path d="M7.77051 61.8164C3.99041 61.8164 0.915039 64.7733 0.915039 68.408C0.915039 72.1381 4.13741 75.1628 8.08693 74.993C8.12075 74.9915 8.15472 74.9909 8.18868 74.9909H42.7982C41.3214 73.1039 40.5247 70.822 40.5247 68.408C40.5247 65.9371 41.3777 63.6537 42.8152 61.8164H7.77051Z" fill="url(#paint1_linear_16_3715)"/>
<path d="M69.9151 0.00676432C66.2482 0.163795 63.376 3.11194 63.376 6.71824V13.2949L70.1927 13.1836C70.2057 13.1835 70.2186 13.1833 70.2315 13.1833C74.0116 13.1833 77.0868 10.2262 77.0868 6.59154C77.0868 2.81136 73.8106 -0.16096 69.9151 0.00676432Z" fill="url(#paint2_linear_16_3715)"/>
</g>
<defs>
<linearGradient id="paint0_linear_16_3715" x1="36.3549" y1="0.00878906" x2="36.3549" y2="74.9907" gradientUnits="userSpaceOnUse">
<stop stop-color="white"/>
<stop offset="1" stop-color="#999999" stop-opacity="0.4"/>
</linearGradient>
<linearGradient id="paint1_linear_16_3715" x1="21.8651" y1="61.8164" x2="21.8651" y2="74.9999" gradientUnits="userSpaceOnUse">
<stop stop-color="white"/>
<stop offset="1" stop-color="#999999" stop-opacity="0.4"/>
</linearGradient>
<linearGradient id="paint2_linear_16_3715" x1="70.2314" y1="0" x2="70.2314" y2="13.2949" gradientUnits="userSpaceOnUse">
<stop stop-color="white"/>
<stop offset="1" stop-color="#999999" stop-opacity="0.4"/>
</linearGradient>
</defs>
</svg>
